<?xml version="1.0" encoding="utf-8"?>
<!-- Generator: Adobe Illustrator 19.1.0, SVG Export Plug-In . SVG Version: 6.00 Build 0)  -->
<svg version="1.1" id="Layer_1" xmlns="http://www.w3.org/2000/svg" xmlns:xlink="http://www.w3.org/1999/xlink" x="0px" y="0px"
	 viewBox="-86 232 439 329" style="enable-background:new -86 232 439 329;" xml:space="preserve">
<style type="text/css">
	.st0{fill:none;enable-background:new    ;}
	.st1{fill:#DC6900;}
	.st2{font-family:'Arial-BoldMT';}
	.st3{font-size:12.4096px;}
	.st4{fill:#EB8C00;}
	.st5{fill:#FFB600;}
	.st6{fill:#FFFFFF;}
	.st7{fill:#E5E2DB;}
	.st8{font-size:10.5441px;}
</style>
<image style="overflow:visible;" width="415" height="258" xlink:href="3E862D1B963F6F65.png"  transform="matrix(0.8276 0 0 0.7576 -62.1246 280.4868)">
</image>
<path class="st0" d="z"/>
<text transform="matrix(1.0924 0 0 1 2.249 480.4941)" class="st1 st2 st3">2013</text>
<text transform="matrix(1.0924 0 0 1 80.0469 480.4941)" class="st4 st2 st3">2014</text>
<text transform="matrix(1.0924 0 0 1 157.0176 480.4941)" class="st5 st2 st3">2015</text>
<text transform="matrix(1.0924 0 0 1 224.0556 480.4941)" class="st6 st2 st3">2016</text>
<rect x="-6.3" y="402.9" class="st1" width="47.7" height="58.9"/>
<rect x="70.8" y="371.1" class="st4" width="47.7" height="90.7"/>
<rect x="148" y="321.2" class="st5" width="47.7" height="140.6"/>
<image style="overflow:visible;" width="103" height="304" xlink:href="3E862D1B963F6F6B.png"  transform="matrix(0.8276 0 0 0.7576 197.7534 232)">
</image>
<path class="st0" d="z"/>
<text transform="matrix(6.123234e-17 -0.9154 1 5.605110e-17 -72.8838 425.9473)" class="st7 st2 st8">submitted solutions</text>
</svg>
