<?xml version="1.0" encoding="iso-8859-1"?>
<!-- Generator: Adobe Illustrator 19.1.0, SVG Export Plug-In . SVG Version: 6.00 Build 0)  -->
<svg version="1.1" id="Solid" xmlns="http://www.w3.org/2000/svg" xmlns:xlink="http://www.w3.org/1999/xlink" x="0px" y="0px"
	 viewBox="0 0 792 612" style="enable-background:new 0 0 792 612;" xml:space="preserve">
<path style="fill:#58595B;" d="M194.371,364.991c-3.674-10.099-13.215-16.372-23.373-16.372c-2.824,0-5.695,0.484-8.504,1.508
	c-12.908,4.697-19.564,18.97-14.867,31.878c3.676,10.099,13.217,16.372,23.375,16.372c2.826,0,5.697-0.485,8.506-1.508
	C192.414,392.172,199.07,377.899,194.371,364.991z M192.855,373.203c-0.32,1.395-0.85,2.802-1.623,4.195
	c-1.059-2.397-2.676-4.824-4.715-7.143c1.859-2.869,2.82-5.972,2.615-8.968c0.98,1.454,1.803,3.034,2.42,4.73
	C192.404,368.359,192.82,370.783,192.855,373.203z M186.598,358.861c1.15,3.162,0.508,6.667-1.465,9.907
	c-2.281-2.341-4.955-4.521-7.832-6.402c1.377-2.326,1.711-4.77,0.912-6.963c-0.463-1.271-1.273-2.361-2.354-3.227
	c3.836,0.882,7.35,2.782,10.174,5.453C186.248,358.027,186.443,358.435,186.598,358.861z M149.648,372.309
	c-0.156-0.428-0.277-0.866-0.369-1.311c0.455-3.896,1.953-7.6,4.307-10.711c-0.275,1.363-0.197,2.717,0.264,3.984
	c0.807,2.213,2.666,3.87,5.168,4.754c-0.994,3.287-1.641,6.676-1.883,9.934C153.471,377.723,150.775,375.403,149.648,372.309z
	 M175.611,361.306c-2.781-1.657-5.707-3.002-8.623-3.922c1.76-2.257,3.635-3.901,5.467-4.827c1.9,0.689,3.291,1.916,3.879,3.531
	C176.916,357.688,176.654,359.518,175.611,361.306z M168.631,351.932c0.32,0,0.625,0.027,0.934,0.049
	c-1.342,0.99-2.66,2.286-3.924,3.867l-1.166-3.203c0.674-0.212,1.354-0.392,2.039-0.537
	C167.227,352,167.938,351.932,168.631,351.932z M162.588,353.311l1.176,3.226c-1.998-0.401-3.848-0.543-5.52-0.436
	c0.725-0.709,1.559-1.35,2.482-1.908C161.328,353.874,161.947,353.578,162.588,353.311z M156.439,358.387
	c1.996-0.465,4.484-0.409,7.275,0.189c-1.643,2.58-3.018,5.491-4.084,8.549c-1.912-0.688-3.312-1.917-3.902-3.538
	C155.148,361.992,155.406,360.17,156.439,358.387z M165.076,360.146l2.535,6.964c-1.393,0.409-2.818,0.634-4.18,0.634
	c-0.652,0-1.268-0.062-1.863-0.152C162.508,364.952,163.682,362.42,165.076,360.146z M166.955,359.461
	c2.535,0.848,5.064,2.035,7.482,3.455c-1.266,1.443-2.967,2.657-4.945,3.518L166.955,359.461z M160.93,369.529
	c0.793,0.141,1.629,0.214,2.502,0.214c1.615,0,3.246-0.263,4.863-0.754l3.5,9.617c-2.699,0.876-5.498,1.359-8.16,1.359h-0.002
	c-1.611,0-3.135-0.166-4.553-0.472C159.287,376.242,159.918,372.836,160.93,369.529z M170.176,368.312
	c2.406-1.027,4.482-2.523,5.988-4.328c2.898,1.882,5.57,4.084,7.818,6.439c-2.367,3.054-5.934,5.74-10.305,7.506L170.176,368.312z
	 M157.031,381.031c-0.07,3.068,0.25,5.95,0.975,8.455c-1.482-0.569-2.789-1.304-3.926-2.163c-1.531-1.868-2.779-3.996-3.633-6.345
	c-0.625-1.717-1.018-3.464-1.199-5.205C150.994,378.201,153.693,380.014,157.031,381.031z M160.262,390.02
	c-0.887-2.435-1.279-5.363-1.254-8.501c1.455,0.288,3,0.447,4.625,0.447h0.002c2.936,0,5.904-0.515,8.846-1.479l3.221,8.85
	c-5.27,1.739-10.668,2.052-15.363,0.871C160.312,390.143,160.285,390.084,160.262,390.02z M174.361,379.808
	c4.592-1.845,8.377-4.653,10.967-7.893c2.043,2.395,3.629,4.896,4.518,7.337c0.023,0.067,0.039,0.13,0.062,0.196
	c-2.84,3.922-7.172,7.15-12.328,9.205L174.361,379.808z M162.197,393.497c-0.256-0.3-0.496-0.638-0.727-0.998
	c1.545,0.278,3.143,0.427,4.775,0.427c3.312,0,6.758-0.574,10.143-1.697l1.139,3.123c-2.125,0.667-4.311,1.025-6.525,1.025
	C167.908,395.377,164.924,394.703,162.197,393.497z M179.404,393.663l-1.141-3.132c4.945-1.961,9.211-4.941,12.252-8.585
	c0.053,0.421,0.088,0.831,0.082,1.222C188.242,387.947,184.307,391.626,179.404,393.663z"/>
</svg>
