<?xml version="1.0" encoding="iso-8859-1"?>
<!-- Generator: Adobe Illustrator 19.1.0, SVG Export Plug-In . SVG Version: 6.00 Build 0)  -->
<svg version="1.1" id="Layer_1" xmlns="http://www.w3.org/2000/svg" xmlns:xlink="http://www.w3.org/1999/xlink" x="0px" y="0px"
	 viewBox="0 0 115 115" style="enable-background:new 0 0 115 115;" xml:space="preserve">
<path style="fill:#58595B;" d="M96.597,55.871c-0.034-0.657-0.462-1.227-1.084-1.442l-5.002-1.728l5.355-2.486
	c0.596-0.277,0.963-0.888,0.93-1.545c-0.032-0.658-0.461-1.228-1.082-1.443l-5.723-1.976c0.373-0.501,0.583-1.027,0.583-1.573v-3.06
	c0,1.183-0.936,2.281-2.535,3.198c-2.754,1.58-7.478,2.624-12.855,2.624c-4.812,0-9.095-0.842-11.916-2.153l0,0
	c-0.328-0.152-0.649-0.307-0.936-0.471c-1.598-0.918-2.535-2.016-2.535-3.198c0-0.438,0.138-0.861,0.38-1.271L20.536,57.752
	c-0.597,0.277-0.966,0.889-0.931,1.546c0.032,0.657,0.463,1.227,1.082,1.441l5.003,1.727l-5.355,2.485
	c-0.597,0.277-0.965,0.889-0.933,1.545c0.035,0.658,0.462,1.228,1.084,1.442l5.002,1.728l-5.355,2.486
	c-0.596,0.277-0.963,0.888-0.93,1.546c0.032,0.657,0.461,1.227,1.084,1.441l29.496,10.186c0.17,0.059,0.35,0.088,0.525,0.088
	c0.234,0,0.466-0.051,0.679-0.15l8.923-4.142c0.893,2.895,7.386,5.142,15.273,5.142c8.502,0,15.39-2.607,15.39-5.822v-3.061
	c0,1.183-0.936,2.281-2.535,3.199c-2.754,1.581-7.478,2.624-12.855,2.624c-5.374,0-10.098-1.044-12.852-2.624
	c-0.19-0.109-0.341-0.23-0.509-0.344l0,0c-1.175-0.784-1.888-1.678-1.981-2.635c-0.008-0.075-0.045-0.145-0.045-0.219v0.236
	l-9.575,4.446l-25.105-8.667l4.766-2.212l20.098,6.941c0.173,0.059,0.35,0.088,0.528,0.088c0.231,0,0.464-0.051,0.679-0.15
	l8.807-4.087c1.13,2.794,7.49,4.935,15.188,4.935c8.502,0,15.39-2.607,15.39-5.823v-3.06c0,1.183-0.936,2.28-2.535,3.198
	c-2.754,1.581-7.478,2.624-12.855,2.624c-5.374,0-10.098-1.043-12.852-2.624c-0.109-0.063-0.191-0.135-0.295-0.2
	c-1.209-0.757-1.962-1.623-2.152-2.555c-0.031-0.148-0.088-0.293-0.088-0.444v0.482l-9.377,4.353l-16.322-5.637l-4.393-1.517
	l-4.387-1.515l4.764-2.211l20.101,6.94c0.172,0.059,0.35,0.088,0.527,0.088c0.233,0,0.466-0.051,0.679-0.15l8.688-4.033
	c1.352,2.693,7.596,4.73,15.106,4.73c7.267,0,13.343-1.907,14.955-4.471l5.328-2.472c0.594-0.277,0.963-0.888,0.93-1.546
	c-0.032-0.657-0.461-1.227-1.084-1.442l-5.002-1.727l5.353-2.486C96.263,57.14,96.631,56.529,96.597,55.871z M60.89,45.827
	c2.261,2.152,7.802,3.676,14.294,3.676c6.495,0,12.038-1.524,14.297-3.676c0.7,0.665,1.093,1.387,1.093,2.145
	c0,1.183-0.936,2.281-2.535,3.198c-2.754,1.581-7.478,2.624-12.855,2.624c-4.812,0-9.095-0.841-11.916-2.152l0,0
	c-0.328-0.152-0.649-0.307-0.936-0.472c-1.598-0.918-2.535-2.016-2.535-3.198C59.797,47.213,60.193,46.491,60.89,45.827z
	 M60.89,53.179c2.261,2.152,7.802,3.675,14.294,3.675c6.495,0,12.038-1.523,14.297-3.675c0.7,0.664,1.093,1.387,1.093,2.145
	c0,0.356-0.111,0.702-0.275,1.042c-0.151,0.311-0.377,0.612-0.649,0.906c-0.116,0.125-0.239,0.249-0.377,0.369
	c-0.101,0.089-0.206,0.177-0.318,0.263c-0.278,0.213-0.573,0.422-0.917,0.617c-2.754,1.581-7.478,2.625-12.855,2.625
	c-4.812,0-9.095-0.842-11.916-2.153l0,0c-0.328-0.152-0.649-0.307-0.936-0.472c-1.598-0.917-2.535-2.016-2.535-3.198
	C59.797,54.567,60.193,53.843,60.89,53.179z M52.751,59.714c-1.273,0.731-3.459,1.214-5.944,1.214c-2.487,0-4.671-0.483-5.946-1.214
	c-0.739-0.424-1.172-0.932-1.172-1.48c0-1.487,3.187-2.692,7.118-2.692c3.931,0,7.116,1.205,7.116,2.692
	C53.923,58.782,53.491,59.29,52.751,59.714z M90.574,62.676c0,0.232-0.063,0.458-0.133,0.682v0.001l0,0
	c-0.005,0.013-0.003,0.025-0.008,0.038c-0.058,0.173-0.151,0.342-0.246,0.51c-0.048,0.083-0.092,0.166-0.148,0.247
	c-0.098,0.143-0.214,0.283-0.337,0.421c-0.111,0.12-0.234,0.239-0.366,0.357c-0.111,0.101-0.218,0.204-0.347,0.302
	c-0.286,0.221-0.594,0.437-0.951,0.641c-2.754,1.581-7.478,2.624-12.855,2.624c-5.374,0-10.098-1.044-12.852-2.624
	c-0.029-0.018-0.05-0.037-0.082-0.055h0.001c-0.769-0.453-1.384-0.947-1.803-1.474c-0.034-0.042-0.047-0.086-0.077-0.128
	c-0.165-0.224-0.313-0.45-0.405-0.683c-0.111-0.281-0.17-0.567-0.17-0.858c0-0.758,0.397-1.481,1.093-2.144
	c2.261,2.152,7.802,3.675,14.294,3.675c6.495,0,12.038-1.524,14.297-3.675C90.181,61.195,90.574,61.918,90.574,62.676z
	 M90.574,56.223v-0.087l0.108,0.037L90.574,56.223z M59.797,35.892c0-3.216,6.888-5.822,15.387-5.822
	c8.502,0,15.39,2.606,15.39,5.822c0,1.183-0.936,2.28-2.535,3.198c-2.754,1.58-7.478,2.624-12.855,2.624
	c-5.374,0-10.098-1.044-12.852-2.624C60.734,38.172,59.797,37.075,59.797,35.892z"/>
</svg>
