<?xml version="1.0" encoding="iso-8859-1"?>
<!-- Generator: Adobe Illustrator 19.1.0, SVG Export Plug-In . SVG Version: 6.00 Build 0)  -->
<svg version="1.1" id="Layer_1" xmlns="http://www.w3.org/2000/svg" xmlns:xlink="http://www.w3.org/1999/xlink" x="0px" y="0px"
	 viewBox="0 0 30 20" style="enable-background:new 0 0 30 20;" xml:space="preserve">
<path style="fill:#58595B;" d="M38.475,8.771c-0.021-0.399-0.281-0.746-0.659-0.877l-3.042-1.051l3.257-1.512
	c0.362-0.168,0.586-0.54,0.565-0.939c-0.02-0.4-0.28-0.747-0.658-0.877l-3.48-1.202c0.227-0.305,0.354-0.625,0.354-0.957v-1.861
	c0,0.719-0.569,1.387-1.542,1.945c-1.675,0.961-4.548,1.596-7.818,1.596c-2.927,0-5.531-0.512-7.247-1.31l0,0
	c-0.199-0.092-0.395-0.187-0.569-0.287c-0.972-0.558-1.542-1.226-1.542-1.945c0-0.266,0.084-0.524,0.231-0.773L-7.785,9.915
	c-0.363,0.168-0.588,0.54-0.566,0.94c0.02,0.399,0.281,0.746,0.658,0.876l3.043,1.05l-3.257,1.511
	c-0.363,0.168-0.587,0.54-0.567,0.94c0.021,0.4,0.281,0.747,0.659,0.877l3.042,1.051l-3.257,1.512
	c-0.362,0.168-0.586,0.54-0.565,0.94c0.02,0.399,0.28,0.746,0.659,0.876l17.939,6.195c0.104,0.036,0.213,0.054,0.319,0.054
	c0.142,0,0.283-0.031,0.413-0.091l5.427-2.519c0.543,1.761,4.492,3.128,9.289,3.128c5.171,0,9.36-1.586,9.36-3.541v-1.861
	c0,0.719-0.569,1.387-1.542,1.945c-1.675,0.961-4.548,1.596-7.818,1.596c-3.269,0-6.142-0.635-7.816-1.596
	c-0.115-0.066-0.207-0.14-0.31-0.209l0,0c-0.715-0.477-1.148-1.021-1.205-1.603c-0.005-0.045-0.027-0.088-0.027-0.133v0.144
	L10.269,24.7l-15.268-5.271l2.898-1.345l12.224,4.222c0.105,0.036,0.213,0.054,0.321,0.054c0.141,0,0.282-0.031,0.413-0.091
	l5.356-2.486c0.688,1.699,4.556,3.001,9.237,3.001c5.171,0,9.36-1.585,9.36-3.542v-1.861c0,0.719-0.569,1.387-1.542,1.945
	c-1.675,0.961-4.548,1.596-7.818,1.596c-3.269,0-6.142-0.634-7.816-1.596c-0.066-0.039-0.116-0.082-0.18-0.122
	c-0.735-0.46-1.193-0.987-1.309-1.554c-0.019-0.09-0.054-0.178-0.054-0.27v0.293l-5.703,2.648l-9.927-3.428l-2.672-0.922
	l-2.668-0.921l2.897-1.345l12.226,4.221c0.104,0.036,0.213,0.054,0.32,0.054c0.142,0,0.283-0.031,0.413-0.091l5.284-2.453
	c0.822,1.638,4.62,2.877,9.188,2.877c4.42,0,8.115-1.16,9.096-2.719l3.24-1.503c0.361-0.168,0.586-0.54,0.565-0.94
	c-0.019-0.399-0.28-0.746-0.659-0.877l-3.042-1.05l3.256-1.512C38.271,9.542,38.495,9.17,38.475,8.771z M16.758,2.662
	c1.375,1.309,4.745,2.236,8.693,2.236c3.95,0,7.321-0.927,8.695-2.236c0.426,0.404,0.665,0.843,0.665,1.305
	c0,0.719-0.569,1.387-1.542,1.945c-1.675,0.961-4.548,1.596-7.818,1.596c-2.927,0-5.531-0.512-7.247-1.309l0,0
	c-0.199-0.093-0.395-0.187-0.569-0.287c-0.972-0.558-1.542-1.226-1.542-1.945C16.093,3.505,16.334,3.066,16.758,2.662z
	 M16.758,7.133c1.375,1.309,4.745,2.235,8.693,2.235c3.95,0,7.321-0.926,8.695-2.235c0.426,0.404,0.665,0.844,0.665,1.305
	c0,0.217-0.067,0.427-0.167,0.634c-0.092,0.189-0.229,0.372-0.394,0.551c-0.07,0.076-0.146,0.151-0.23,0.225
	c-0.061,0.054-0.125,0.107-0.193,0.16c-0.169,0.129-0.349,0.256-0.558,0.375c-1.675,0.961-4.548,1.597-7.818,1.597
	c-2.927,0-5.531-0.512-7.247-1.31l0,0c-0.199-0.092-0.395-0.187-0.569-0.287c-0.972-0.558-1.542-1.226-1.542-1.945
	C16.093,7.977,16.334,7.537,16.758,7.133z M11.808,11.108c-0.774,0.445-2.104,0.738-3.615,0.738c-1.513,0-2.841-0.293-3.616-0.738
	c-0.449-0.258-0.713-0.567-0.713-0.9c0-0.904,1.938-1.637,4.329-1.637c2.391,0,4.328,0.733,4.328,1.637
	C12.52,10.541,12.258,10.85,11.808,11.108z M34.811,12.909c0,0.141-0.038,0.278-0.081,0.415v0.001l0,0
	c-0.003,0.008-0.002,0.015-0.005,0.023c-0.035,0.105-0.092,0.208-0.149,0.31c-0.029,0.05-0.056,0.101-0.09,0.15
	c-0.059,0.087-0.13,0.172-0.205,0.256c-0.067,0.073-0.143,0.146-0.223,0.217c-0.067,0.062-0.133,0.124-0.211,0.184
	c-0.174,0.134-0.361,0.266-0.578,0.39c-1.675,0.961-4.548,1.596-7.818,1.596c-3.269,0-6.142-0.635-7.816-1.596
	c-0.018-0.011-0.03-0.023-0.05-0.034h0.001c-0.468-0.275-0.842-0.576-1.097-0.896c-0.021-0.025-0.028-0.052-0.047-0.078
	c-0.101-0.136-0.19-0.274-0.246-0.415c-0.067-0.171-0.103-0.345-0.103-0.522c0-0.461,0.241-0.901,0.665-1.304
	c1.375,1.309,4.745,2.235,8.693,2.235c3.95,0,7.321-0.927,8.695-2.235C34.572,12.009,34.811,12.448,34.811,12.909z M34.811,8.984
	V8.932l0.066,0.023L34.811,8.984z M16.093-3.38c0-1.956,4.189-3.541,9.358-3.541c5.171,0,9.36,1.585,9.36,3.541
	c0,0.719-0.569,1.387-1.542,1.945c-1.675,0.961-4.548,1.596-7.818,1.596c-3.269,0-6.142-0.635-7.816-1.596
	C16.663-1.994,16.093-2.661,16.093-3.38z"/>
</svg>
