<?xml version="1.0" encoding="iso-8859-1"?>
<!-- Generator: Adobe Illustrator 19.1.0, SVG Export Plug-In . SVG Version: 6.00 Build 0)  -->
<svg version="1.1" id="Layer_1" xmlns="http://www.w3.org/2000/svg" xmlns:xlink="http://www.w3.org/1999/xlink" x="0px" y="0px"
	 viewBox="0 0 1400 610" style="enable-background:new 0 0 1400 610;" xml:space="preserve">
<path style="fill:#FEE0A5;" d="M264.244-2.684c0.007-19.847-16.099-35.961-35.969-35.961l-141.05-0.001L-51.126-257.611
	c-2.537-4.004-6.939-6.449-11.697-6.445h-34.712c-4.535-0.004-8.781,2.223-11.368,5.941c-2.583,3.73-3.171,8.491-1.59,12.733
	l77.296,206.744h-129.891l-53.023-59.902c-2.614-2.95-6.401-4.665-10.367-4.673l-18.396,0.008c-4.7,0.008-9.08,2.399-11.628,6.355
	c-2.549,3.954-2.909,8.93-0.959,13.218l36.859,80.956l-36.859,80.972c-1.953,4.275-1.586,9.258,0.955,13.213
	c0.547,0.844,1.162,1.605,1.85,2.293c2.568,2.568,6.079,4.054,9.79,4.059l18.403-0.001c3.959,0.001,7.726-1.704,10.356-4.67
	l53.012-59.889l129.895-0.004l-77.299,206.731c-1.586,4.246-0.994,9.003,1.594,12.729c0.473,0.688,1.012,1.326,1.585,1.899
	c2.575,2.576,6.08,4.055,9.782,4.051h34.712c4.75,0.004,9.166-2.427,11.689-6.447L87.222,33.289l141.06,0.003
	C248.14,33.289,264.244,17.185,264.244-2.684z"/>
</svg>
