<?xml version="1.0" encoding="iso-8859-1"?>
<!-- Generator: Adobe Illustrator 19.1.0, SVG Export Plug-In . SVG Version: 6.00 Build 0)  -->
<svg version="1.1" id="Solid" xmlns="http://www.w3.org/2000/svg" xmlns:xlink="http://www.w3.org/1999/xlink" x="0px" y="0px"
	 viewBox="0 0 792 612" style="enable-background:new 0 0 792 612;" xml:space="preserve">
<path style="fill:#58595B;" d="M194.475,119.771c-0.02-0.399-0.281-0.746-0.659-0.877l-3.042-1.051l3.257-1.512
	c0.362-0.169,0.586-0.54,0.565-0.939c-0.019-0.4-0.28-0.747-0.658-0.877l-3.48-1.202c0.227-0.305,0.354-0.624,0.354-0.956v-1.861
	c0,0.719-0.569,1.387-1.542,1.945c-1.675,0.961-4.548,1.596-7.818,1.596c-2.927,0-5.531-0.512-7.247-1.31l0,0
	c-0.199-0.092-0.395-0.187-0.569-0.287c-0.972-0.558-1.542-1.226-1.542-1.945c0-0.266,0.084-0.524,0.231-0.773l-24.109,11.192
	c-0.363,0.168-0.588,0.541-0.566,0.94c0.02,0.399,0.281,0.746,0.658,0.876l3.043,1.05l-3.257,1.511
	c-0.363,0.168-0.587,0.541-0.567,0.94c0.021,0.4,0.281,0.747,0.659,0.877l3.042,1.051l-3.257,1.512
	c-0.362,0.168-0.586,0.54-0.565,0.94c0.02,0.399,0.28,0.746,0.659,0.877l17.939,6.195c0.104,0.036,0.213,0.054,0.319,0.054
	c0.143,0,0.283-0.031,0.413-0.091l5.427-2.519c0.543,1.761,4.492,3.128,9.289,3.128c5.171,0,9.36-1.585,9.36-3.541v-1.861
	c0,0.719-0.569,1.387-1.542,1.945c-1.675,0.961-4.548,1.596-7.818,1.596c-3.269,0-6.142-0.635-7.816-1.596
	c-0.115-0.066-0.207-0.14-0.31-0.21l0,0c-0.715-0.477-1.148-1.02-1.205-1.603c-0.005-0.045-0.027-0.088-0.027-0.133v0.144
	l-5.823,2.704l-15.268-5.271l2.898-1.345l12.224,4.222c0.105,0.036,0.213,0.054,0.321,0.054c0.141,0,0.282-0.031,0.413-0.091
	l5.357-2.486c0.688,1.699,4.556,3.002,9.237,3.002c5.171,0,9.36-1.585,9.36-3.542v-1.861c0,0.719-0.569,1.387-1.542,1.945
	c-1.675,0.961-4.548,1.596-7.818,1.596c-3.269,0-6.142-0.634-7.816-1.596c-0.066-0.039-0.116-0.082-0.18-0.122
	c-0.735-0.461-1.193-0.987-1.309-1.554c-0.019-0.09-0.054-0.178-0.054-0.27v0.293l-5.703,2.648l-9.927-3.428l-2.672-0.922
	l-2.668-0.921l2.897-1.345l12.226,4.221c0.105,0.036,0.213,0.054,0.32,0.054c0.142,0,0.283-0.031,0.413-0.091l5.284-2.453
	c0.822,1.638,4.62,2.877,9.188,2.877c4.42,0,8.115-1.16,9.096-2.719l3.24-1.503c0.361-0.169,0.586-0.54,0.565-0.94
	c-0.02-0.399-0.28-0.746-0.659-0.877l-3.042-1.05l3.256-1.512C194.271,120.542,194.495,120.17,194.475,119.771z M172.758,113.662
	c1.375,1.309,4.745,2.236,8.693,2.236c3.95,0,7.321-0.927,8.695-2.236c0.426,0.404,0.665,0.843,0.665,1.305
	c0,0.719-0.569,1.387-1.542,1.945c-1.675,0.961-4.548,1.596-7.818,1.596c-2.927,0-5.531-0.512-7.247-1.309l0,0
	c-0.199-0.093-0.395-0.187-0.569-0.287c-0.972-0.558-1.542-1.226-1.542-1.945C172.093,114.505,172.334,114.066,172.758,113.662z
	 M172.758,118.133c1.375,1.309,4.745,2.235,8.693,2.235c3.95,0,7.321-0.926,8.695-2.235c0.426,0.404,0.665,0.844,0.665,1.305
	c0,0.217-0.067,0.427-0.167,0.634c-0.092,0.189-0.23,0.372-0.395,0.551c-0.07,0.076-0.146,0.151-0.23,0.225
	c-0.061,0.054-0.125,0.107-0.193,0.16c-0.169,0.129-0.349,0.256-0.558,0.375c-1.675,0.961-4.548,1.597-7.818,1.597
	c-2.927,0-5.531-0.512-7.247-1.31l0,0c-0.199-0.092-0.395-0.187-0.569-0.287c-0.972-0.558-1.542-1.226-1.542-1.945
	C172.093,118.977,172.334,118.537,172.758,118.133z M167.808,122.108c-0.774,0.445-2.104,0.738-3.615,0.738
	c-1.513,0-2.841-0.294-3.616-0.738c-0.449-0.258-0.713-0.567-0.713-0.9c0-0.904,1.938-1.637,4.329-1.637
	c2.391,0,4.328,0.733,4.328,1.637C168.52,121.541,168.258,121.85,167.808,122.108z M190.811,123.909
	c0,0.141-0.038,0.278-0.081,0.415v0l0,0c-0.003,0.008-0.002,0.015-0.005,0.023c-0.035,0.105-0.092,0.208-0.149,0.31
	c-0.029,0.05-0.056,0.101-0.09,0.15c-0.06,0.087-0.13,0.172-0.205,0.256c-0.067,0.073-0.143,0.146-0.223,0.217
	c-0.067,0.061-0.133,0.124-0.211,0.183c-0.174,0.134-0.361,0.266-0.578,0.39c-1.675,0.961-4.548,1.596-7.818,1.596
	c-3.269,0-6.142-0.635-7.816-1.596c-0.018-0.011-0.03-0.022-0.05-0.034h0.001c-0.468-0.275-0.842-0.576-1.097-0.896
	c-0.02-0.025-0.028-0.052-0.047-0.078c-0.101-0.136-0.19-0.274-0.246-0.416c-0.067-0.171-0.104-0.345-0.104-0.522
	c0-0.461,0.241-0.901,0.665-1.304c1.375,1.309,4.745,2.235,8.693,2.235c3.95,0,7.321-0.927,8.695-2.235
	C190.572,123.009,190.811,123.448,190.811,123.909z M190.811,119.984v-0.053l0.066,0.022L190.811,119.984z M172.093,107.62
	c0-1.956,4.189-3.541,9.358-3.541c5.171,0,9.36,1.585,9.36,3.541c0,0.719-0.569,1.387-1.542,1.945
	c-1.675,0.961-4.548,1.596-7.818,1.596c-3.269,0-6.142-0.635-7.816-1.596C172.663,109.006,172.093,108.339,172.093,107.62z"/>
</svg>
